Coordinates
version=1
nRows=27
nColumns=34
inDegrees=yes

Units are S.I. units (second, meters, Newtons, ...)
If the header above contains a line with 'inDegrees', this indicates whether rotational values are in degrees (yes) or radians (no).

endheader
time	pelvis_tilt	pelvis_list	pelvis_rotation	pelvis_tx	pelvis_ty	pelvis_tz	hip_flexion_r	hip_adduction_r	hip_rotation_r	knee_angle_r	ankle_angle_r	subtalar_angle_r	mtp_angle_r	hip_flexion_l	hip_adduction_l	hip_rotation_l	knee_angle_l	ankle_angle_l	subtalar_angle_l	mtp_angle_l	lumbar_extension	lumbar_bending	lumbar_rotation	arm_flex_r	arm_add_r	arm_rot_r	elbow_flex_r	pro_sup_r	arm_flex_l	arm_add_l	arm_rot_l	elbow_flex_l	pro_sup_l
0.000000	3.710095	-2.150219	3.492020	0.880869	0.933154	-0.073093	-2.873324	-0.957170	-10.633900	1.178747	2.833374	-8.389199	0.000000	-0.718120	-6.792459	-7.027801	2.846792	5.905504	-5.559983	0.000000	-7.577740	3.564766	-2.834304	9.736372	-9.133313	21.766053	26.148954	81.040556	9.409232	-7.278401	17.111922	26.924544	71.608564
0.016667	2.887229	-1.290934	3.090167	0.882253	0.932565	-0.072512	-2.142807	-1.674324	-11.617169	0.749714	4.005769	-6.635665	0.000000	-0.219471	-5.704431	-8.960522	2.395132	6.157434	-4.194012	0.000000	-6.143785	2.549284	-2.400980	9.168266	-8.503157	19.730412	25.675848	80.832143	9.248013	-7.128138	15.879360	26.339302	71.424450
0.033333	2.210207	-0.529360	2.727827	0.883396	0.932250	-0.071977	-1.550172	-2.322402	-12.503013	0.389351	4.968791	-5.091236	0.000000	0.139240	-4.743232	-10.650524	1.927831	6.278731	-3.014158	0.000000	-4.966074	1.656712	-1.988135	8.674039	-7.966283	17.976005	25.297357	80.664186	9.115263	-7.020066	14.845692	25.846448	71.260950
0.050000	1.762023	0.065313	2.441753	0.884150	0.932267	-0.071517	-1.172787	-2.844044	-13.217574	0.138195	5.618544	-3.882247	0.000000	0.291870	-3.994661	-11.947744	1.456506	6.213057	-2.128844	0.000000	-4.183479	0.974812	-1.625258	8.300295	-7.580935	16.682516	25.063408	80.552986	9.027079	-6.968264	14.121090	25.491537	71.131789
0.066667	1.542415	0.471465	2.251119	0.884487	0.932441	-0.071131	-1.008275	-3.211118	-13.732703	-0.002771	5.969328	-3.024527	0.000000	0.263801	-3.482722	-12.832990	1.021405	5.982224	-1.547185	0.000000	-3.790820	0.528404	-1.335756	8.057990	-7.354551	15.885005	24.972792	80.490038	8.988200	-6.959300	13.704633	25.267211	71.039562
0.083333	1.500375	0.713059	2.147611	0.884475	0.932540	-0.070801	-1.005619	-3.433811	-14.073372	-0.060214	6.103337	-2.444033	0.000000	0.122303	-3.176653	-13.392105	0.660379	5.638207	-1.205562	0.000000	-3.701063	0.280882	-1.118715	7.930629	-7.256714	15.502510	24.996312	80.456278	8.999738	-6.970207	13.523808	25.135871	70.976110
0.100000	1.574306	0.837401	2.104650	0.884217	0.932442	-0.070520	-1.103425	-3.548040	-14.296907	-0.067680	6.117235	-2.033075	0.000000	-0.072891	-3.018461	-13.747400	0.385480	5.234971	-1.013685	0.000000	-3.811907	0.165660	-0.955756	7.888294	-7.244416	15.403513	25.097914	80.434469	9.059371	-6.982507	13.488045	25.055138	70.928702
0.116667	1.709819	0.889696	2.096647	0.883810	0.932170	-0.070288	-1.247966	-3.591926	-14.459239	-0.052500	6.088348	-1.711523	0.000000	-0.278037	-2.953167	-13.992667	0.192022	4.835714	-0.894982	0.000000	-4.034599	0.121596	-0.831072	7.900752	-7.279686	15.465366	25.243917	80.414998	9.156847	-6.987946	13.523812	24.993825	70.887210
0.133333	1.869202	0.901255	2.109251	0.883325	0.931847	-0.070090	-1.403967	-3.592600	-14.599052	-0.032068	6.063923	-1.439236	0.000000	-0.466041	-2.943028	-14.177707	0.070775	4.504326	-0.798259	0.000000	-4.306803	0.110455	-0.737693	7.943357	-7.337026	15.605717	25.410106	80.395136	9.276788	-6.987945	13.586208	24.933044	70.845481
0.150000	2.039974	0.891038	2.134900	0.882782	0.931642	-0.069905	-1.562717	-3.566639	-14.746301	-0.014981	6.066522	-1.183155	0.000000	-0.635635	-2.965266	-14.334384	0.006601	4.271476	-0.684762	0.000000	-4.604034	0.114112	-0.669674	7.997638	-7.405492	15.787563	25.590779	80.374237	9.410429	-6.988440	13.655721	24.857918	70.797487
0.166667	2.229398	0.869525	2.166383	0.882182	0.931678	-0.069724	-1.734802	-3.523370	-14.928977	-0.003886	6.103375	-0.902847	0.000000	-0.805476	-3.006897	-14.493848	-0.019844	4.124730	-0.522440	0.000000	-4.933659	0.124811	-0.618052	8.052734	-7.485660	16.004654	25.796168	80.350734	9.561104	-6.994281	13.728766	24.755368	70.736242
0.183333	2.441635	0.841080	2.197287	0.881579	0.931910	-0.069549	-1.926870	-3.467393	-15.159857	0.001743	6.169948	-0.578901	0.000000	-0.988413	-3.061234	-14.675408	-0.025110	4.032380	-0.301547	0.000000	-5.301113	0.139433	-0.574912	8.104451	-7.579982	16.253171	26.030721	80.323524	9.731075	-7.007532	13.805862	24.623149	70.659433
0.200000	2.656977	0.806837	2.224871	0.881107	0.932143	-0.069398	-2.122293	-3.402171	-15.419606	0.003596	6.249291	-0.243373	0.000000	-1.170783	-3.123782	-14.871244	-0.020509	3.967091	-0.050573	0.000000	-5.674770	0.157331	-0.537476	8.149639	-7.682648	16.507097	26.271195	80.294483	9.903048	-7.028509	13.882086	24.478401	70.575488
0.216667	2.839910	0.767885	2.250427	0.880923	0.932246	-0.069293	-2.290835	-3.332824	-15.667245	0.003391	6.318039	0.038429	0.000000	-1.322822	-3.189510	-15.054219	-0.013076	3.912328	0.179463	0.000000	-5.994543	0.178580	-0.507632	8.181773	-7.780601	16.724769	26.475091	80.267809	10.043144	-7.055600	13.947711	24.348949	70.499764
0.233333	2.968718	0.727207	2.277303	0.881094	0.932280	-0.069252	-2.417588	-3.266262	-15.872388	0.002391	6.358703	0.221476	0.000000	-1.429206	-3.252656	-15.202911	-0.006479	3.857852	0.353547	0.000000	-6.216259	0.202484	-0.488274	8.191520	-7.863799	16.879342	26.612822	80.246742	10.123595	-7.084194	13.996625	24.252536	70.443178
0.250000	3.047366	0.689201	2.308043	0.881518	0.932371	-0.069267	-2.510566	-3.209252	-16.030780	0.001333	6.365919	0.304463	0.000000	-1.498420	-3.307697	-15.314011	-0.002008	3.796718	0.468636	0.000000	-6.335062	0.227477	-0.480154	8.172620	-7.929992	16.971797	26.683128	80.231930	10.138066	-7.108462	14.029834	24.189099	70.407086
0.266667	3.092092	0.657583	2.342183	0.881969	0.932544	-0.069311	-2.583178	-3.165961	-16.155304	0.000537	6.343821	0.311412	0.000000	-1.546167	-3.350817	-15.396021	0.000380	3.726606	0.539808	0.000000	-6.374267	0.252211	-0.480968	8.128856	-7.981163	17.018639	26.703119	80.222350	10.100561	-7.125336	14.051690	24.149695	70.386985
0.283333	3.118299	0.634009	2.376716	0.882241	0.932736	-0.069351	-2.642123	-3.136964	-16.263322	0.000063	6.300594	0.270197	0.000000	-1.582723	-3.380916	-15.460377	0.001263	3.649141	0.585252	0.000000	-6.366514	0.276295	-0.486563	8.072846	-8.020076	17.038311	26.694294	80.216458	10.035047	-7.135643	14.066383	24.125135	70.377013
0.300000	3.136689	0.618147	2.407894	0.882248	0.932908	-0.069370	-2.688015	-3.120152	-16.367122	-0.000149	6.244984	0.204681	0.000000	-1.612478	-3.399307	-15.515524	0.001287	3.567919	0.620087	0.000000	-6.340773	0.299719	-0.493167	8.018264	-8.049196	17.045384	26.674423	80.212760	9.964157	-7.141740	14.077011	24.108748	70.372156
0.316667	3.151903	0.608775	2.431318	0.882015	0.933104	-0.069374	-2.717220	-3.112735	-16.466853	-0.000197	6.186544	0.135740	0.000000	-1.635422	-3.408160	-15.563165	0.000949	3.489923	0.654495	0.000000	-6.317477	0.321456	-0.498308	7.976452	-8.069434	17.049037	26.654866	80.209990	9.905627	-7.145173	14.085235	24.097019	70.368977
0.333333	3.163432	0.605007	2.442190	0.881604	0.933395	-0.069376	-2.724029	-3.112902	-16.554784	-0.000163	6.135258	0.083455	0.000000	-1.648498	-3.409037	-15.601753	0.000554	3.425309	0.697668	0.000000	-6.309408	0.339277	-0.499851	7.956971	-8.080021	17.054893	26.640387	80.206539	9.873305	-7.145967	14.091522	24.088225	70.364811
0.350000	3.170063	0.606669	2.437945	0.881047	0.933799	-0.069375	-2.705839	-3.119973	-16.629328	-0.000105	6.098622	0.067171	0.000000	-1.648543	-3.402770	-15.636289	0.000241	3.382806	0.765679	0.000000	-6.323284	0.351093	-0.494643	7.966257	-8.080728	17.068857	26.629035	80.199321	9.875932	-7.142949	14.096272	24.079098	70.355959
0.366667	3.173305	0.613851	2.420223	0.880349	0.934246	-0.069356	-2.666820	-3.133586	-16.700901	-0.000053	6.081468	0.106207	0.000000	-1.634921	-3.390136	-15.683128	0.000047	3.368474	0.883411	0.000000	-6.360299	0.355387	-0.478360	8.005778	-8.073612	17.099147	26.612815	80.183376	9.916299	-7.134215	14.100470	24.063078	70.336883
0.383333	3.176847	0.626387	2.393373	0.879560	0.934619	-0.069307	-2.616764	-3.153059	-16.785781	-0.000017	6.088400	0.220120	0.000000	-1.610549	-3.372318	-15.765405	-0.000046	3.388373	1.078314	0.000000	-6.416998	0.350578	-0.447029	8.071899	-8.062607	17.155153	26.580111	80.152809	9.993136	-7.117437	14.105398	24.031742	70.301158
0.400000	3.183606	0.643750	2.361335	0.878818	0.934844	-0.069233	-2.566464	-3.177313	-16.898022	0.000002	6.123003	0.422862	0.000000	-1.580778	-3.350820	-15.902872	-0.000072	3.447319	1.370123	0.000000	-6.488050	0.335465	-0.398913	8.157877	-8.051685	17.244030	26.520515	80.102988	10.103048	-7.090562	14.112141	23.978253	70.243850
0.416667	3.193435	0.664737	2.326859	0.878276	0.934940	-0.069146	-2.523444	-3.204495	-17.039954	0.000010	6.182350	0.705484	0.000000	-1.550707	-3.327541	-16.096186	-0.000063	3.541212	1.750242	0.000000	-6.567683	0.311244	-0.336928	8.254715	-8.042867	17.363489	26.433008	80.034977	10.237339	-7.053973	14.120977	23.903015	70.166352
0.433333	3.203733	0.686521	2.293295	0.878007	0.934966	-0.069068	-2.491569	-3.231043	-17.193869	0.000010	6.252564	1.019671	0.000000	-1.523924	-3.305385	-16.314583	-0.000043	3.650523	2.160696	0.000000	-6.647405	0.283151	-0.271139	8.348461	-8.035683	17.494895	26.332198	79.959586	10.375542	-7.012634	14.130857	23.818286	70.080921
